<?xml version="1.0" encoding="UTF-8"?> <!-- Creator: CorelDRAW --> <svg xmlns="http://www.w3.org/2000/svg" xmlns:xlink="http://www.w3.org/1999/xlink" xmlns:xodm="http://www.corel.com/coreldraw/odm/2003" xml:space="preserve" width="54.7189mm" height="49.3586mm" style="shape-rendering:geometricPrecision; text-rendering:geometricPrecision; image-rendering:optimizeQuality; fill-rule:evenodd; clip-rule:evenodd" viewBox="0 0 7273.2 6560.71"> <defs> <style type="text/css"> <![CDATA[ .fil0 {fill:#6C7568;fill-rule:nonzero} ]]> </style> </defs> <g id="Слой_x0020_1"> <metadata id="CorelCorpID_0Corel-Layer"></metadata> <path class="fil0" d="M5322.52 0c455.83,9.76 898.57,82.57 1318.81,283.32 382.54,182.72 561.24,488.47 609.82,894.87 69.64,582.61 -35.02,1146.72 -183.91,1703.18 -287.31,1073.99 -703.09,2093.59 -1369.18,2992.96 -158.16,213.53 -366.72,393.18 -568.31,569.9 -113.62,99.6 -273,157.75 -419.68,81.6 -151.17,-78.5 -154.55,-248.48 -125.62,-387.89 82.86,-399.42 172.09,-798.74 285.86,-1190.28 165.62,-569.92 358.62,-1131.86 530.71,-1700.04 33.89,-111.93 43.28,-238.2 32.78,-355.05 -15.25,-170.22 -140.96,-223.07 -274.97,-115.21 -233.57,187.89 -453.16,393.04 -683.95,584.5 -565.19,468.95 -1126.04,943.67 -1704.58,1395.67 -193.38,151.08 -430.61,249.97 -656.24,354.44 -166.41,77.04 -339.54,81.17 -486.78,-63.44 -156.99,-154.27 -258.83,-345.07 -178.1,-552.52 79.53,-204.16 195.68,-408.14 342.87,-569.16 439.8,-481.19 997.33,-812.76 1550.08,-1146.02 316.65,-190.89 639.83,-371.1 955.08,-564.28 65.56,-40.18 109.11,-116.29 162.76,-175.84 -81.45,-18.2 -167.68,-63.5 -243.64,-50.18 -589.84,103.53 -1176.31,226.3 -1766.48,327.43 -599.55,102.75 -1201.06,195.87 -1804.11,274.78 -158.31,20.74 -329.55,-10.13 -487.57,-47.88 -154.84,-36.94 -204.35,-159.18 -110.95,-287.48 113.15,-155.45 246.42,-303.3 395.53,-424.13 598.62,-485.14 1276.6,-837.9 1981.51,-1138.8 925.01,-394.82 1880.66,-668.85 2898.28,-694.45z"></path> </g> </svg> 