<?xml version="1.0" encoding="UTF-8"?> <!-- Creator: CorelDRAW --> <svg xmlns="http://www.w3.org/2000/svg" xmlns:xlink="http://www.w3.org/1999/xlink" xmlns:xodm="http://www.corel.com/coreldraw/odm/2003" xml:space="preserve" width="42.9793mm" height="49.5431mm" style="shape-rendering:geometricPrecision; text-rendering:geometricPrecision; image-rendering:optimizeQuality; fill-rule:evenodd; clip-rule:evenodd" viewBox="0 0 2139.42 2466.15"> <defs> <style type="text/css"> <![CDATA[ .fil0 {fill:#DCCCBC;fill-rule:nonzero} ]]> </style> </defs> <g id="Слой_x0020_1"> <metadata id="CorelCorpID_0Corel-Layer"></metadata> <path class="fil0" d="M1745.6 1306.79c82.71,8.8 165.49,17.01 248.08,26.92 15.91,1.91 31.43,9.48 46.47,16 97.63,42.32 123.57,110 76.39,205.53 -44.57,90.24 -98.81,174.08 -175.4,241.24 -13.35,11.73 -27.69,22.55 -42.63,32.17 -88.05,56.63 -161.75,37.09 -221,-49.45 -47.71,-69.66 -97.83,-139.41 -157.04,-199.03 -70.26,-70.78 -160.26,-111.56 -262.11,-81.07 -111.47,33.35 -181.37,114.86 -215.82,224.58 -15.98,50.86 10.46,100.43 59.63,121.29 19.88,8.45 42.09,15.68 63.34,15.92 173.23,1.97 268.34,112.62 345.64,247.18 13.31,23.18 20.92,50.7 26.25,77.2 15.91,78.76 -14.24,144.44 -87.77,174.94 -88.35,36.67 -179.19,67.71 -270.06,97.85 -59.99,19.88 -114.44,3.22 -147.44,-50.94 -44.06,-72.32 -81.53,-148.67 -121.69,-223.33 -29.78,-55.39 -55.77,-113.21 -90.02,-165.69 -35.59,-54.54 -75.7,-65.31 -130.15,-28.75 -63.18,42.41 -119.84,94.88 -177.52,145.07 -77.44,67.4 -149.95,140.91 -231.04,203.4 -35.81,27.61 -86.32,41.58 -132.24,49.21 -59.34,9.85 -105.23,-23.92 -138.4,-71.47 -20.24,-29.05 -10.16,-60.43 10.05,-83.78 42.02,-48.55 85.89,-95.88 132.46,-140.06 86.5,-82.11 176.73,-160.31 262.71,-242.93 28.23,-27.13 50.52,-61.46 71.33,-95.09 47.26,-76.4 39.95,-141.89 -15.69,-212.32 -90.02,-113.95 -181.7,-226.86 -265.59,-345.22 -30.41,-42.93 -45.36,-99.06 -58.54,-151.37 -14.77,-58.69 14.59,-103.2 64.64,-134.31 110.35,-68.62 239.44,-46.82 334.67,55 72.93,77.99 110.35,170.53 126.28,275.39 9.17,60.32 25.8,120.52 47.26,177.71 24.67,65.82 76.81,79.5 124.91,30.29 54.19,-55.42 103.31,-117.13 146.58,-181.51 40.51,-60.28 39.13,-130.7 0.17,-191.16 -44.25,-68.7 -98.67,-130.79 -147.56,-196.57 -57.05,-76.75 -123.32,-148.98 -167.03,-232.83 -84.82,-162.71 -29.1,-261.93 151.18,-292.64 192.95,-32.89 335.03,74.21 358.5,273.64 8.8,74.74 8.61,150.48 15.53,225.49 2.99,32.33 10.62,65.04 21.53,95.69 15.78,44.43 51.73,63.95 94.74,46.24 52.84,-21.77 103.93,-49.28 152.5,-79.53 43.53,-27.11 46.85,-74.88 34.99,-118.23 -20.16,-73.67 -45.41,-146.16 -72.1,-217.8 -32.57,-87.5 -62.44,-174.85 -69.28,-269.25 -11.82,-163.53 68.61,-270.24 230.81,-300.95 199.59,-37.79 362.2,39.13 438.58,212.45 17.77,40.32 26.69,86.75 29.5,131 5.34,84.11 -35.14,138.59 -114.74,170.3 -52.12,20.79 -104.75,40.74 -155.27,65.01 -76.06,36.54 -98.95,86.47 -59.34,160.57 87.4,163.47 -32.16,431.58 -240.53,461.21 -13.28,1.9 -25.31,12.61 -37.9,19.21 10.75,10.94 19.74,28.22 32.55,31.8 83.82,23.46 168.48,43.97 252.86,65.43 1.26,-6.53 2.54,-13.08 3.81,-19.61z"></path> </g> </svg> 